<?xml version="1.0" encoding="utf-8"?>
<!-- Generator: Adobe Illustrator 23.1.1, SVG Export Plug-In . SVG Version: 6.00 Build 0)  -->
<svg version="1.1" id="Layer_1" xmlns="http://www.w3.org/2000/svg" xmlns:xlink="http://www.w3.org/1999/xlink" x="0px" y="0px"
	 viewBox="0 0 502.4 119.72" style="enable-background:new 0 0 502.4 119.72;" xml:space="preserve">
<style type="text/css">
	.st0{fill:#FFFFFF;}
</style>
<g>
	<g>
		<path class="st0" d="M188.21,103.11c-24.54,0-41.01-19.24-41.01-41.59s16.7-41.82,41.24-41.82s41.01,19.24,41.01,41.59
			C229.45,83.65,212.75,103.11,188.21,103.11 M188.21,28.12c-18.43,0-31.56,14.75-31.56,33.18s13.36,33.41,31.8,33.41
			c18.43,0,31.56-14.74,31.56-33.18C220.01,43.1,206.64,28.12,188.21,28.12"/>
		<polygon class="st0" points="319.38,101.73 307.97,101.73 276.98,62.68 259.82,80.07 259.82,101.73 250.72,101.73 250.72,21.09 
			259.82,21.09 259.82,69.24 306.13,21.09 317.88,21.09 283.32,56.34 		"/>
		<path class="st0" d="M396.35,101.73l-23.39-31.34h-23.04v31.34h-9.1V21.09h34.67c17.74,0,29.15,9.56,29.15,24.08
			c0,13.48-9.21,21.31-21.89,23.62l24.77,32.95h-11.17V101.73z M374.81,29.5h-24.88v32.72h24.77c12.1,0,20.74-6.22,20.74-16.7
			C395.43,35.49,387.83,29.5,374.81,29.5"/>
		<path class="st0" d="M502.4,101.73h-9.79l-9.45-21.31h-43.89l-9.56,21.31h-9.33l36.75-81.22h8.52L502.4,101.73z M461.28,31.11
			l-18.43,41.13h36.75L461.28,31.11z"/>
	</g>
	<g>
		<g>
			<path id="SVGID_1_" class="st0" d="M31.69,106.09c-5.36-3.89-11-13.83-5.2-21.81c5.81-7.99,25.76-11.61,28.2-9.84
				c2.44,1.77,5.16,21.87-0.65,29.86c-2.84,3.91-6.97,5.35-11.08,5.35C38.67,109.64,34.42,108.07,31.69,106.09 M69.92,104.29
				c-5.8-7.99-3.08-28.09-0.64-29.86s22.4,1.85,28.2,9.84c5.8,7.98,0.16,17.92-5.2,21.81c-2.74,1.99-6.99,3.56-11.27,3.56
				C76.9,109.64,72.76,108.2,69.92,104.29 M21.58,69.16c-9.39-3.05-10.66-14.4-8.62-20.7s9.75-14.74,19.14-11.69
				c9.39,3.05,19,20.91,18.07,23.78C49.37,63,35.88,69.8,26.12,69.8c-0.02,0-0.03,0-0.04,0C24.44,69.8,22.92,69.6,21.58,69.16
				 M73.79,60.55c-0.93-2.87,8.69-20.72,18.07-23.78c9.39-3.05,17.09,5.39,19.14,11.69c2.04,6.3,0.77,17.65-8.62,20.7
				c-1.36,0.44-2.9,0.63-4.54,0.63h-0.01C88.08,69.8,74.59,63,73.79,60.55 M44.95,27.44c0-9.87,10.41-14.59,17.03-14.59
				s17.03,4.72,17.03,14.59S64.99,51.97,61.98,51.97S44.95,37.3,44.95,27.44 M49.96,4.39L30.45,20.81L8.8,34.29
				c-7.71,4.8-10.84,14.45-7.43,22.86l9.59,23.64l6.13,24.76c2.18,8.81,10.39,14.77,19.44,14.12l25.44-1.82l25.45,1.82
				c9.06,0.65,17.26-5.31,19.44-14.12l6.13-24.76l9.6-23.64c3.41-8.41,0.28-18.05-7.43-22.86L93.51,20.81L74,4.39
				C70.53,1.46,66.26,0,61.98,0C57.71,0,53.44,1.46,49.96,4.39"/>
		</g>
	</g>
</g>
</svg>
